<svg width="753" height="252" viewBox="0 0 753 252" fill="none" xmlns="http://www.w3.org/2000/svg">
<rect width="753" height="252" fill="white"/>
<path d="M189.058 57.2526C189.058 53.8198 186.238 51 182.805 51H85.0021C71.5775 51 60.942 61.6355 60.942 74.7536C60.942 74.7536 60.942 181.875 60.942 181.936C60.942 192.571 69.6772 201 80.3126 201H182.499C185.012 201 187.495 199.437 188.445 196.924C189.395 194.41 188.752 191.621 186.575 190.058C181.028 186.533 180.691 178.81 185.625 175.377C186.667 174.335 189.027 172.189 188.844 169.124C188.997 168.634 189.058 57.2526 189.058 57.2526ZM73.4471 181.936C73.4471 178.197 76.5734 175.377 80.3126 175.377H170.331C167.573 179.974 168.155 185.369 170.331 188.495H80.3126C76.5734 188.495 73.4471 185.706 73.4471 181.936ZM176.584 162.872H80.3433C77.922 162.872 75.6232 163.331 73.4777 164.159V74.7536C73.4777 68.501 78.7802 63.5051 85.0327 63.5051H176.614V162.872H176.584Z" fill="black"/>
<path d="M266.844 158L245.797 129.219H240.828V158H226.766V90.2656H240.828V116.891H245.609L266.844 90.2656H284L257.75 122.656L284.797 158H266.844ZM321.594 108.875C327.375 108.875 331.812 110.328 334.906 113.234C338 116.109 339.547 120.219 339.547 125.562V158H326V128.469C326 125.438 325.188 123.219 323.562 121.812C321.969 120.406 319.906 119.703 317.375 119.703C315.906 119.703 314.562 119.906 313.344 120.312C312.125 120.719 311 121.359 309.969 122.234C308.938 123.078 308.125 124.281 307.531 125.844C306.969 127.406 306.672 129.266 306.641 131.422V158H293.141V109.812H306.641V115.156C310.203 110.969 315.188 108.875 321.594 108.875ZM375.125 158.938C370 158.938 365.453 157.953 361.484 155.984C357.516 154.016 354.391 151.125 352.109 147.312C349.859 143.5 348.734 139.016 348.734 133.859C348.734 126.141 351.172 120.047 356.047 115.578C360.922 111.109 367.281 108.875 375.125 108.875C383 108.875 389.375 111.109 394.25 115.578C399.125 120.047 401.562 126.141 401.562 133.859C401.562 141.609 399.125 147.734 394.25 152.234C389.375 156.703 383 158.938 375.125 158.938ZM374.984 148.203C378.922 148.203 382.094 146.891 384.5 144.266C386.938 141.641 388.156 138.172 388.156 133.859C388.156 129.547 386.938 126.078 384.5 123.453C382.094 120.828 378.922 119.516 374.984 119.516C371.203 119.516 368.109 120.844 365.703 123.5C363.328 126.125 362.141 129.578 362.141 133.859C362.141 138.141 363.328 141.609 365.703 144.266C368.109 146.891 371.203 148.203 374.984 148.203ZM470.328 109.812H484.297L467.422 158.047H454.906L443.75 126.219L432.5 158.047H419.797L403.25 109.812H417.172L427.109 141.172L438.5 109.812H448.859L460.203 141.078L470.328 109.812ZM520.109 108.875C523.266 108.875 526.25 109.453 529.062 110.609C531.875 111.766 534.328 113.406 536.422 115.531C538.547 117.625 540.219 120.266 541.438 123.453C542.656 126.641 543.266 130.156 543.266 134C543.266 137.844 542.656 141.359 541.438 144.547C540.219 147.734 538.547 150.391 536.422 152.516C534.328 154.609 531.875 156.234 529.062 157.391C526.25 158.547 523.266 159.125 520.109 159.125C516.734 159.125 513.688 158.484 510.969 157.203C508.281 155.891 506.266 154.062 504.922 151.719L504.594 158H491.797V86H505.297V115.672C506.672 113.516 508.672 111.844 511.297 110.656C513.953 109.469 516.891 108.875 520.109 108.875ZM516.969 147.922C520.656 147.922 523.703 146.656 526.109 144.125C528.547 141.594 529.766 138.219 529.766 134C529.766 129.75 528.547 126.359 526.109 123.828C523.703 121.297 520.656 120.031 516.969 120.031C513.344 120.031 510.312 121.328 507.875 123.922C505.438 126.484 504.219 129.844 504.219 134C504.219 138.156 505.422 141.516 507.828 144.078C510.266 146.641 513.312 147.922 516.969 147.922ZM593 144.922C593 150.047 593.391 153.969 594.172 156.688V158H581.562L580.484 152.75C578.766 154.812 576.516 156.359 573.734 157.391C570.953 158.422 568.047 158.938 565.016 158.938C563.422 158.938 561.922 158.797 560.516 158.516C559.109 158.234 557.75 157.766 556.438 157.109C555.156 156.422 554.047 155.578 553.109 154.578C552.172 153.578 551.422 152.312 550.859 150.781C550.297 149.219 550.016 147.469 550.016 145.531C550.016 143.594 550.312 141.859 550.906 140.328C551.5 138.766 552.281 137.453 553.25 136.391C554.219 135.328 555.484 134.375 557.047 133.531C558.609 132.688 560.203 132 561.828 131.469C563.453 130.938 565.359 130.438 567.547 129.969L575.469 128.188C577.156 127.781 578.344 127.281 579.031 126.688C579.75 126.062 580.109 125.25 580.109 124.25C580.109 122.094 579.312 120.547 577.719 119.609C576.156 118.672 574.25 118.203 572 118.203C566.469 118.203 563.328 120.656 562.578 125.562L550.625 123.406C551.625 118.438 553.953 114.781 557.609 112.438C561.266 110.062 566.312 108.875 572.75 108.875C586.25 108.875 593 114.672 593 126.266V144.922ZM569.234 149.797C572.641 149.797 575.422 148.641 577.578 146.328C579.734 143.984 580.812 140.531 580.812 135.969L569.375 139.203C567.281 139.703 565.672 140.359 564.547 141.172C563.453 141.984 562.906 143.141 562.906 144.641C562.906 146.297 563.5 147.578 564.688 148.484C565.875 149.359 567.391 149.797 569.234 149.797ZM623.141 158.938C617.516 158.938 612.828 157.812 609.078 155.562C605.328 153.312 603.031 149.969 602.188 145.531L613.484 142.344C614.828 147.125 618.047 149.516 623.141 149.516C625.109 149.516 626.75 149.156 628.062 148.438C629.375 147.688 630.016 146.438 629.984 144.688C629.984 143.719 629.719 142.891 629.188 142.203C628.656 141.516 627.828 140.922 626.703 140.422C625.609 139.922 624.516 139.5 623.422 139.156C622.359 138.812 620.938 138.406 619.156 137.938C617.375 137.438 615.891 136.969 614.703 136.531C613.078 135.969 611.656 135.375 610.438 134.75C609.25 134.094 608.078 133.266 606.922 132.266C605.797 131.234 604.922 129.969 604.297 128.469C603.703 126.969 603.406 125.25 603.406 123.312C603.406 118.562 605.141 114.969 608.609 112.531C612.109 110.094 616.672 108.875 622.297 108.875C627.297 108.875 631.5 109.906 634.906 111.969C638.312 114.031 640.469 117.25 641.375 121.625L630.922 123.969C629.609 119.906 626.75 117.875 622.344 117.875C620.438 117.875 618.859 118.234 617.609 118.953C616.359 119.672 615.734 120.734 615.734 122.141C615.734 122.672 615.828 123.156 616.016 123.594C616.203 124.031 616.531 124.422 617 124.766C617.469 125.109 617.922 125.406 618.359 125.656C618.797 125.906 619.438 126.172 620.281 126.453C621.125 126.703 621.828 126.906 622.391 127.062C622.953 127.188 623.766 127.391 624.828 127.672C625.922 127.953 626.766 128.172 627.359 128.328C629.078 128.797 630.578 129.266 631.859 129.734C633.172 130.203 634.562 130.859 636.031 131.703C637.5 132.547 638.703 133.5 639.641 134.562C640.609 135.594 641.406 136.922 642.031 138.547C642.656 140.141 642.969 141.922 642.969 143.891C642.969 146.547 642.422 148.875 641.328 150.875C640.266 152.875 638.797 154.453 636.922 155.609C635.047 156.734 632.953 157.562 630.641 158.094C628.359 158.656 625.859 158.938 623.141 158.938ZM698 133.203L697.859 136.438H662.141C662.422 140.281 663.703 143.219 665.984 145.25C668.266 147.281 671.094 148.297 674.469 148.297C676.906 148.297 679.016 147.75 680.797 146.656C682.609 145.531 683.969 143.906 684.875 141.781L697.25 143.609C695.656 148.453 692.844 152.219 688.812 154.906C684.781 157.594 680.031 158.938 674.562 158.938C666.688 158.938 660.422 156.734 655.766 152.328C651.141 147.891 648.828 141.75 648.828 133.906C648.828 126.125 651.156 120 655.812 115.531C660.469 111.031 666.578 108.781 674.141 108.781C681.328 108.781 687.094 110.828 691.438 114.922C695.781 119.016 697.969 125.109 698 133.203ZM674.234 118.344C667.672 118.344 663.766 121.438 662.516 127.625H684.641C684.297 124.625 683.188 122.328 681.312 120.734C679.438 119.141 677.078 118.344 674.234 118.344Z" fill="black"/>
</svg>
